<svg xmlns="http://www.w3.org/2000/svg" viewBox="0 0 75.13 94.36"><defs><style>.cls-1{fill:#222459;}</style></defs><g id="Layer_2" data-name="Layer 2"><g id="Layer_1-2" data-name="Layer 1"><path class="cls-1" d="M57,58.12A18.12,18.12,0,1,0,75.13,76.24,18.14,18.14,0,0,0,57,58.12Zm0,32.24A14.12,14.12,0,1,1,71.13,76.24,14.13,14.13,0,0,1,57,90.36Zm9.1-14.12a2,2,0,0,1-2,2H59v5.1a2,2,0,0,1-4,0v-5.1h-5.1a2,2,0,0,1,0-4H55v-5.1a2,2,0,0,1,4,0v5.1h5.1A2,2,0,0,1,66.11,76.24ZM38.73,92.1a2,2,0,0,1-2,2H0V4A4,4,0,0,1,4,0H55a4,4,0,0,1,4,4V52a2,2,0,0,1-4,0V4H4V90.1H36.73A2,2,0,0,1,38.73,92.1ZM48.23,11H10.78v20.4H48.23ZM14.78,15H27.5v12.4H14.78Zm29.45,12.4H31.5V15H44.23Zm4,7.91H10.78V55.66H48.23Zm-33.45,4H27.5V51.66H14.78ZM44.23,51.66H31.5V39.27H44.23ZM38.64,63.58a2,2,0,0,0,0-4H10.78V80H34.56a2,2,0,0,0,0-4H31.5V63.58ZM27.5,76H14.78V63.58H27.5Z"/></g></g></svg>