<svg xmlns="http://www.w3.org/2000/svg" viewBox="0 0 86.73 95.08"><defs><style>.cls-1{fill:#222459;}</style></defs><g id="Layer_2" data-name="Layer 2"><g id="Layer_1-2" data-name="Layer 1"><path class="cls-1" d="M69.19,60A17.55,17.55,0,1,0,86.73,77.53,17.56,17.56,0,0,0,69.19,60Zm0,31.09A13.55,13.55,0,1,1,82.73,77.53,13.57,13.57,0,0,1,69.19,91.08Z"/><path class="cls-1" d="M76,75.53H71.19V70.69a2,2,0,0,0-4,0v4.84H62.34a2,2,0,0,0,0,4h4.85v4.85a2,2,0,0,0,4,0V79.53H76a2,2,0,0,0,0-4Z"/><path class="cls-1" d="M52.89,90.12H4.07A27.43,27.43,0,0,1,31.38,64.73H34V53.37l-.59-.58a29.78,29.78,0,0,1-8.76-21.17V22.68a18.68,18.68,0,0,1,37.36,0v8.94a29.78,29.78,0,0,1-8.77,21.17l-.59.58v9.36a2,2,0,0,0,4,0V55a33.68,33.68,0,0,0,9.36-23.39V22.68a22.68,22.68,0,0,0-45.36,0v8.94A33.67,33.67,0,0,0,30,55v5.75A31.43,31.43,0,0,0,0,92.12v2H52.89a2,2,0,0,0,0-4Z"/></g></g></svg>