<svg xmlns="http://www.w3.org/2000/svg" viewBox="0 0 80.35 60.47"><defs><style>.cls-1{fill:#1c1f50;}</style></defs><g id="Layer_2" data-name="Layer 2"><g id="Layer_1-2" data-name="Layer 1"><path class="cls-1" d="M64.19,28.18H6.83L31.59,3.41A2,2,0,0,0,28.76.59L.59,28.77a1.42,1.42,0,0,0-.25.3,1.19,1.19,0,0,0-.09.15l-.1.2a1.17,1.17,0,0,0-.06.2.84.84,0,0,0,0,.17,2,2,0,0,0,0,.78,1.21,1.21,0,0,0,0,.18c0,.06,0,.13.06.2l.1.19a1.19,1.19,0,0,0,.09.15,1.79,1.79,0,0,0,.25.31L28.76,59.77a2,2,0,0,0,1.42.59,2,2,0,0,0,1.41-.59,2,2,0,0,0,0-2.82L6.83,32.18H64.19c8.16,0,12,6.25,12.15,12S73,56.08,65.05,56.44q-.6,0-1.2,0a2,2,0,1,0,0,4c.46,0,.93,0,1.38,0,10.63-.48,15.28-8.78,15.11-16.3C80.16,36.21,74.56,28.18,64.19,28.18Z"/></g></g></svg>