<svg xmlns="http://www.w3.org/2000/svg" viewBox="0 0 122.71 122.71"><defs><style>.cls-1{fill:#222459;}</style></defs><g id="Layer_2" data-name="Layer 2"><g id="Layer_1-2" data-name="Layer 1"><path class="cls-1" d="M91.88,81.27a45.94,45.94,0,0,0,0-53.61L106.76,12.8A7.5,7.5,0,1,0,96.15,2.2L27.87,70.48A31.06,31.06,0,0,1,57.66,23.6,7.5,7.5,0,1,0,59.18,8.68,46,46,0,0,0,17.06,81.29L2.2,96.15a7.5,7.5,0,1,0,10.6,10.61L32.53,87,81.09,38.48a31.05,31.05,0,0,1-26.61,47,7.5,7.5,0,0,0,0,15,45.79,45.79,0,0,0,26.8-8.64l28.63,28.63a7.5,7.5,0,1,0,10.6-10.6Z"/></g></g></svg>