<svg xmlns="http://www.w3.org/2000/svg" width="14.1" height="14.096" viewBox="0 0 14.1 14.096">
  <path id="Path_124" data-name="Path 124" d="M402.377,1606.527a5.267,5.267,0,0,0,0-6.146l1.706-1.7a.86.86,0,0,0-1.2-1.236l-.021.021-7.828,7.828a3.561,3.561,0,0,1,3.415-5.375.86.86,0,0,0,.207-1.707l-.033,0a5.274,5.274,0,0,0-4.829,8.324l-1.7,1.7a.86.86,0,0,0,1.194,1.238l.021-.021,2.262-2.266,5.567-5.563a3.56,3.56,0,0,1-3.051,5.388.86.86,0,0,0,0,1.72,5.251,5.251,0,0,0,3.073-.991l3.282,3.282a.86.86,0,1,0,1.258-1.172c-.014-.015-.028-.029-.043-.043Z" transform="translate(-391.833 -1597.199)" fill="#fff"/>
</svg>
