<svg xmlns="http://www.w3.org/2000/svg" viewBox="0 0 90.9 94.14"><defs><style>.cls-1{fill:#0f1d5b;}</style></defs><g id="Layer_2" data-name="Layer 2"><g id="Layer_1-2" data-name="Layer 1"><path class="cls-1" d="M63.44,29.19A24.36,24.36,0,0,0,45,22.65,24.55,24.55,0,0,0,28.14,63.21,19.22,19.22,0,0,1,32.9,75.79v4a2,2,0,0,0,2,2H58.49a2,2,0,0,0,2-2v-4A18.46,18.46,0,0,1,65,63.46a24.54,24.54,0,0,0-1.58-34.27ZM62,60.8a22.44,22.44,0,0,0-5.55,15v2H36.9v-2a23.22,23.22,0,0,0-5.74-15.2A20.55,20.55,0,1,1,62,60.8Z"/><path class="cls-1" d="M54.41,83.47H37.94a5.34,5.34,0,1,0,0,10.67H54.41a5.34,5.34,0,0,0,0-10.67Zm0,6.67H37.94a1.34,1.34,0,1,1,0-2.67H54.41a1.34,1.34,0,0,1,0,2.67Z"/><path class="cls-1" d="M45.65,14.94a2,2,0,0,0,2-2V2a2,2,0,0,0-4,0V12.94A2,2,0,0,0,45.65,14.94Z"/><path class="cls-1" d="M21.19,23.73a2,2,0,0,0,1.42.59A2,2,0,0,0,24,20.91l-7.74-7.74A2,2,0,0,0,13.46,16Z"/><path class="cls-1" d="M14.94,45.24a2,2,0,0,0-2-2H2a2,2,0,0,0,0,4H12.94A2,2,0,0,0,14.94,45.24Z"/><path class="cls-1" d="M20.91,66.87l-7.74,7.74A2,2,0,0,0,14.58,78,2,2,0,0,0,16,77.44l7.73-7.74a2,2,0,1,0-2.82-2.83Z"/><path class="cls-1" d="M69.7,67.16A2,2,0,1,0,66.87,70l7.74,7.74a2,2,0,0,0,2.83-2.83Z"/><path class="cls-1" d="M88.9,43.65H78a2,2,0,0,0,0,4h11a2,2,0,0,0,0-4Z"/><path class="cls-1" d="M68.58,24.61A2,2,0,0,0,70,24l7.74-7.74a2,2,0,0,0-2.83-2.82l-7.74,7.73a2,2,0,0,0,1.42,3.42Z"/></g></g></svg>