<svg xmlns="http://www.w3.org/2000/svg" width="167.924" height="33.001" viewBox="0 0 167.924 33.001">
  <g id="Logo" transform="translate(-714.594 -4459.054)">
    <g id="Group_16" data-name="Group 16" transform="translate(714.594 4460.109)">
      <g id="Group_10" data-name="Group 10" transform="translate(0 18.841)">
        <path id="Path_11" data-name="Path 11" d="M718.249,4556.841a1.828,1.828,0,0,1-3.653.132q0-.066,0-.132a1.827,1.827,0,1,1,3.653,0Z" transform="translate(-714.594 -4554.997)" fill="#ffa35f"/>
      </g>
      <g id="Group_11" data-name="Group 11" transform="translate(19.031 0.258)">
        <path id="Path_12" data-name="Path 12" d="M818.528,4465.385a12.268,12.268,0,0,0,0,24.534,12.058,12.058,0,0,0,8.26-3.274v-3.96a9.61,9.61,0,0,1-16.751-.389l17.467-11.213h0l.9-.574A12.109,12.109,0,0,0,818.528,4465.385Zm-9.65,12.274a9.694,9.694,0,0,1,9.647-9.742h0a9.558,9.558,0,0,1,5.961,2.083l-15.37,9.858A9.945,9.945,0,0,1,808.878,4477.659Z" transform="translate(-806.367 -4465.385)" fill="#0f1d5b"/>
      </g>
      <g id="Group_12" data-name="Group 12" transform="translate(75.723 0.258)">
        <path id="Path_13" data-name="Path 13" d="M1100.89,4471.083l.9-.574a12.266,12.266,0,1,0-1.627,16.136v-3.96a9.61,9.61,0,0,1-16.741-.389l17.47-11.213Zm-18.635,6.576a9.7,9.7,0,0,1,9.648-9.735,9.557,9.557,0,0,1,5.961,2.083l-15.37,9.858A9.807,9.807,0,0,1,1082.254,4477.659Z" transform="translate(-1079.743 -4465.385)" fill="#0f1d5b"/>
      </g>
      <g id="Group_13" data-name="Group 13" transform="translate(43.186 0)">
        <path id="Path_14" data-name="Path 14" d="M925.445,4468.77v-3.784h-2.6v23.646h2.6V4475a9.694,9.694,0,0,1,7.827-8.222l.591-2.634A12.114,12.114,0,0,0,925.445,4468.77Z" transform="translate(-922.844 -4464.142)" fill="#0f1d5b"/>
      </g>
      <g id="Group_14" data-name="Group 14" transform="translate(55.096 0.473)">
        <path id="Path_15" data-name="Path 15" d="M999.349,4466.422,991,4484.764l-8.29-18.342-2.436,1.239,10.683,23.08,10.672-23.189Z" transform="translate(-980.278 -4466.422)" fill="#0f1d5b"/>
      </g>
      <g id="Group_15" data-name="Group 15" transform="translate(1.599 0.319)">
        <path id="Path_16" data-name="Path 16" d="M731.537,4476.641c-2.871-.826-4.892-1.111-5.8-2.568a3.646,3.646,0,0,1,.988-5.029c1.913-1.308,5.675-1.386,8.6,1.354l1.636-2.085a10.135,10.135,0,0,0-6.822-2.632,9.174,9.174,0,0,0-5.462,1.776,6.609,6.609,0,0,0-2.364,4.873,5.927,5.927,0,0,0,2.116,4.618,12.965,12.965,0,0,0,3.675,1.682c2.22.641,5.015,1.215,5.817,2.7s.88,4.124-.7,5.292a5.061,5.061,0,0,1-3.587,1.308,7.938,7.938,0,0,1-4.637-1.62h0a2.482,2.482,0,0,1-1.778,2.147,9.928,9.928,0,0,0,6.418,2.086,7.8,7.8,0,0,0,7.134-4.462,7.14,7.14,0,0,0,.047-5.557C735.966,4478.775,734.408,4477.465,731.537,4476.641Z" transform="translate(-722.306 -4465.68)" fill="#0f1d5b"/>
      </g>
    </g>
    <g id="Group_17" data-name="Group 17" transform="translate(824.844 4459.054)">
      <path id="Path_17" data-name="Path 17" d="M1264.258,4471.467q0,5.5-2.37,8.74a7.576,7.576,0,0,1-6.457,3.238,10.167,10.167,0,0,1-4.761-1.086,8.162,8.162,0,0,1-3.261-3v12.7h-1.174v-32.566h1.174v4.2a8.634,8.634,0,0,1,3.283-3.436,9.21,9.21,0,0,1,4.7-1.2,7.68,7.68,0,0,1,6.5,3.163q2.369,3.164,2.37,8.881Zm-1.2-.456q0-5.065-2.01-7.924a6.505,6.505,0,0,0-5.642-2.859,8.185,8.185,0,0,0-5.022,1.533,8.486,8.486,0,0,0-2.978,4.4v11a7.466,7.466,0,0,0,2.989,3.771,9.138,9.138,0,0,0,5.055,1.337,6.447,6.447,0,0,0,5.609-2.869Q1263.062,4476.533,1263.062,4471.011Z" transform="translate(-1246.236 -4459.054)" fill="#0f1d5b"/>
      <path id="Path_18" data-name="Path 18" d="M1374.332,4460.358l-1.522-.131a6.966,6.966,0,0,0-5.022,1.944,9.687,9.687,0,0,0-2.652,5.44v15.4h-1.174v-23.522h1.174v4.892a8.655,8.655,0,0,1,2.87-3.891,7.78,7.78,0,0,1,4.8-1.436,4.672,4.672,0,0,1,1.652.244Z" transform="translate(-1339.548 -4459.054)" fill="#0f1d5b"/>
      <path id="Path_19" data-name="Path 19" d="M1425.079,4470.793a13.779,13.779,0,0,1,1.293-6.055,9.951,9.951,0,0,1,3.652-4.185,9.733,9.733,0,0,1,5.337-1.5,9.68,9.68,0,0,1,8.967,5.588,13.661,13.661,0,0,1,1.337,6.021v1.043a13.854,13.854,0,0,1-1.282,6.065,9.884,9.884,0,0,1-3.641,4.174,9.735,9.735,0,0,1-5.337,1.5,9.732,9.732,0,0,1-9-5.619,13.636,13.636,0,0,1-1.326-5.989Zm1.174.913a12.365,12.365,0,0,0,1.163,5.381,9.159,9.159,0,0,0,3.239,3.815,8.429,8.429,0,0,0,4.75,1.369,8.155,8.155,0,0,0,6.555-3.021,11.707,11.707,0,0,0,2.533-7.783v-.674a12.242,12.242,0,0,0-1.174-5.348,9.308,9.308,0,0,0-3.25-3.837,8.31,8.31,0,0,0-4.706-1.381,8.141,8.141,0,0,0-6.566,3.065,11.681,11.681,0,0,0-2.543,7.718Z" transform="translate(-1387.991 -4459.054)" fill="#0f1d5b"/>
    </g>
  </g>
</svg>
