<svg xmlns="http://www.w3.org/2000/svg" viewBox="0 0 810 159.12"><defs><style>.cls-1{fill:#ffa35f;}.cls-2{fill:#fff;}</style></defs><g id="Layer_2" data-name="Layer 2"><g id="Layer_1-2" data-name="Layer 1"><path class="cls-1" d="M17.6,104.82a8.69,8.69,0,0,1-8.5,9.1,8.7,8.7,0,0,1-9.1-8.5v-.6a8.83,8.83,0,0,1,8.8-8.9A9,9,0,0,1,17.6,104.82Z"/><path class="cls-2" d="M198,31a58.49,58.49,0,0,0-47.6-24.7c-32.4,0-58.6,26.5-58.6,59.2s26.2,59.2,58.6,59.2a58.3,58.3,0,0,0,39.8-15.8V89.82a46.39,46.39,0,0,1-80.8-1.9l84.2-54.1Zm-93,45.1a47,47,0,0,1,45.3-57.6,45.55,45.55,0,0,1,15.2,2.61,44.6,44.6,0,0,1,13.5,7.5Z"/><path class="cls-2" d="M471.5,31a58.41,58.41,0,0,0-47.7-24.7c-32.4,0-58.6,26.5-58.6,59.2s26.2,59.2,58.6,59.2a57.84,57.84,0,0,0,39.8-15.8V89.82A46.32,46.32,0,0,1,382.9,88l84.2-54.09Zm-93.1,45.2a42.45,42.45,0,0,1-1.1-10.6,46.49,46.49,0,0,1,75.3-36.9Z"/><path class="cls-2" d="M220.8,27.41V9.21H208.3v114h12.5V57.42a46.72,46.72,0,0,1,37.7-39.7L261.4,5A58.91,58.91,0,0,0,220.8,27.41Z"/><path class="cls-2" d="M357.6,7.42l-40.2,88.4-40-88.4-11.8,6,51.5,111.3,51.5-111.9Z"/><path class="cls-2" d="M52.2,59.51c-13.8-4-23.6-5.4-28-12.4s-4.5-18,4.8-24.3,27.4-6.7,41.5,6.5l7.9-10.1C71,13.41,61.5,6.61,45.5,6.61a44.28,44.28,0,0,0-26.3,8.61S7.8,24,7.8,38.72A28.13,28.13,0,0,0,17.9,61a62.89,62.89,0,0,0,17.7,8.1c10.7,3.1,24.2,5.9,28,13s4.2,19.9-3.3,25.5-11.4,6.31-17.3,6.31a38.71,38.71,0,0,1-22.4-7.81h0A11.91,11.91,0,0,1,12,116.42c2.2,1.9,12.7,10.09,31,10.09A37.65,37.65,0,0,0,77.4,105c3.1-7,4.3-18.4.2-26.8S66.1,63.51,52.2,59.51Z"/><path class="cls-2" d="M607.1,15.21C599.5,5.11,589,0,575.8,0a44.06,44.06,0,0,0-22.7,5.81,41.33,41.33,0,0,0-15.8,16.6V2.11h-5.7v157h5.7V97.92a39.31,39.31,0,0,0,15.7,14.5,48.19,48.19,0,0,0,23,5.19c13.1,0,23.5-5.19,31.1-15.6s11.4-24.5,11.4-42.09v-1.8Q618.65,30.52,607.1,15.21Zm-4,82.9q-9.6,13.8-27,13.81c-9.6,0-17.7-2.1-24.4-6.5a35.52,35.52,0,0,1-14.4-18.21v-53C540.2,25,545,18,551.7,13s14.7-7.4,24.2-7.4c11.7,0,20.7,4.6,27.2,13.8s9.7,21.9,9.7,38.2C612.7,75.42,609.5,88.82,603.1,98.11Z"/><path class="cls-2" d="M699.4,6.32,692,5.71c-9.6,0-17.7,3.1-24.2,9.4S657,30,655,41.31v74.2h-5.7V2.11H655V25.72a41.87,41.87,0,0,1,13.9-18.8Q678.05,0,692,0a21.93,21.93,0,0,1,8,1.21Z"/><path class="cls-2" d="M803.3,26.91A46.68,46.68,0,0,0,760.1,0a47.64,47.64,0,0,0-25.7,7.2,47.24,47.24,0,0,0-17.6,20.21,65.24,65.24,0,0,0-6.2,29.2v5A65.53,65.53,0,0,0,717,90.51a47.59,47.59,0,0,0,17.7,20,49.89,49.89,0,0,0,51.5-.09,47.3,47.3,0,0,0,17.6-20.21A66.94,66.94,0,0,0,810,61V56A71.27,71.27,0,0,0,803.3,26.91Zm.8,33c0,15.3-4.1,27.9-12.2,37.59S773.2,112,760.3,112a41.29,41.29,0,0,1-22.9-6.59A44.27,44.27,0,0,1,721.8,87a59.64,59.64,0,0,1-5.6-26v-3.4q0-22.5,12.3-37.2c8.2-9.8,18.7-14.8,31.7-14.8a39.74,39.74,0,0,1,22.7,6.7,45.5,45.5,0,0,1,15.7,18.5,60.66,60.66,0,0,1,5.7,25.8v3.31Z"/></g></g></svg>