<svg xmlns="http://www.w3.org/2000/svg" width="152.65" height="29.999" viewBox="0 0 152.65 29.999">
  <g id="Logo" transform="translate(-2504.483 -3708.404)">
    <g id="Group_1" data-name="Group 1" transform="translate(2504.483 3726.49)">
      <path id="Path_1" data-name="Path 1" d="M2507.8,3806.025a1.662,1.662,0,1,1-3.321.12c0-.04,0-.08,0-.12a1.661,1.661,0,1,1,3.321,0Z" transform="translate(-2504.483 -3804.348)" fill="#ffa35f"/>
    </g>
    <g id="Group_2" data-name="Group 2" transform="translate(2521.783 3709.598)">
      <path id="Path_2" data-name="Path 2" d="M2607.311,3714.735a11.152,11.152,0,0,0,0,22.3,10.963,10.963,0,0,0,7.509-2.978v-3.6a8.734,8.734,0,0,1-15.227-.353l15.878-10.193h0l.817-.523A11.012,11.012,0,0,0,2607.311,3714.735Zm-8.772,11.158a8.813,8.813,0,0,1,8.77-8.856h0a8.684,8.684,0,0,1,5.419,1.894l-13.972,8.961A9.081,9.081,0,0,1,2598.539,3725.894Z" transform="translate(-2596.256 -3714.735)" fill="#fff"/>
    </g>
    <g id="Group_3" data-name="Group 3" transform="translate(2573.318 3709.598)">
      <path id="Path_3" data-name="Path 3" d="M2888.854,3719.916l.817-.523a11.152,11.152,0,1,0-1.479,14.669v-3.6a8.735,8.735,0,0,1-15.219-.353l15.881-10.193Zm-16.94,5.978a8.813,8.813,0,0,1,8.77-8.849,8.682,8.682,0,0,1,5.418,1.894l-13.971,8.962A8.963,8.963,0,0,1,2871.914,3725.894Z" transform="translate(-2869.631 -3714.735)" fill="#fff"/>
    </g>
    <g id="Group_4" data-name="Group 4" transform="translate(2543.74 3709.363)">
      <path id="Path_4" data-name="Path 4" d="M2715.1,3717.7v-3.439h-2.365v21.5h2.365V3723.36a8.811,8.811,0,0,1,7.114-7.473l.537-2.395A11.006,11.006,0,0,0,2715.1,3717.7Z" transform="translate(-2712.732 -3713.492)" fill="#fff"/>
    </g>
    <g id="Group_5" data-name="Group 5" transform="translate(2554.568 3709.793)">
      <path id="Path_5" data-name="Path 5" d="M2787.5,3715.773l-7.586,16.674-7.537-16.674-2.213,1.126,9.712,20.981,9.7-21.08Z" transform="translate(-2770.167 -3715.773)" fill="#fff"/>
    </g>
    <g id="Group_6" data-name="Group 6" transform="translate(2505.936 3709.653)">
      <path id="Path_6" data-name="Path 6" d="M2520.586,3724.994c-2.61-.75-4.448-1.01-5.274-2.334a3.314,3.314,0,0,1,.9-4.572c1.74-1.188,5.159-1.26,7.814,1.231l1.488-1.9a9.214,9.214,0,0,0-6.2-2.392,8.337,8.337,0,0,0-4.965,1.614,6.007,6.007,0,0,0-2.15,4.43,5.388,5.388,0,0,0,1.924,4.2,11.793,11.793,0,0,0,3.34,1.529c2.018.583,4.559,1.1,5.288,2.45s.8,3.749-.631,4.81a4.6,4.6,0,0,1-3.261,1.189,7.223,7.223,0,0,1-4.215-1.473h0a2.257,2.257,0,0,1-1.617,1.952,9.022,9.022,0,0,0,5.834,1.9,7.094,7.094,0,0,0,6.485-4.056,6.489,6.489,0,0,0,.043-5.051C2524.612,3726.936,2523.2,3725.745,2520.586,3724.994Z" transform="translate(-2512.193 -3715.032)" fill="#fff"/>
    </g>
    <path id="Path_7" data-name="Path 7" d="M3052.507,3719.688a13.184,13.184,0,0,1-2.154,7.944,6.888,6.888,0,0,1-5.87,2.945,9.227,9.227,0,0,1-4.328-.988,7.417,7.417,0,0,1-2.964-2.727V3738.4h-1.067v-29.6h1.067v3.814a7.849,7.849,0,0,1,2.984-3.123,8.374,8.374,0,0,1,4.268-1.087,6.982,6.982,0,0,1,5.909,2.876q2.153,2.875,2.154,8.073Zm-1.087-.415a12.354,12.354,0,0,0-1.829-7.2,5.911,5.911,0,0,0-5.128-2.6,7.448,7.448,0,0,0-4.565,1.393,7.715,7.715,0,0,0-2.707,4v10a6.781,6.781,0,0,0,2.718,3.429,8.3,8.3,0,0,0,4.594,1.215,5.861,5.861,0,0,0,5.1-2.608Q3051.42,3724.292,3051.42,3719.273Z" transform="translate(-431.421 0)" fill="#fff"/>
    <path id="Path_8" data-name="Path 8" d="M3163.277,3709.59l-1.384-.118a6.325,6.325,0,0,0-4.565,1.767,8.808,8.808,0,0,0-2.41,4.946v14h-1.067V3708.8h1.067v4.446a7.863,7.863,0,0,1,2.609-3.538,7.071,7.071,0,0,1,4.366-1.3,4.246,4.246,0,0,1,1.5.222Z" transform="translate(-526.955 0)" fill="#fff"/>
    <path id="Path_9" data-name="Path 9" d="M3214.968,3719.076a12.517,12.517,0,0,1,1.176-5.5,9.042,9.042,0,0,1,3.319-3.8,8.847,8.847,0,0,1,4.852-1.364,8.8,8.8,0,0,1,8.152,5.079,12.428,12.428,0,0,1,1.216,5.474v.949a12.592,12.592,0,0,1-1.166,5.513,8.99,8.99,0,0,1-3.31,3.794,8.848,8.848,0,0,1-4.851,1.364,8.846,8.846,0,0,1-8.181-5.109,12.387,12.387,0,0,1-1.206-5.444Zm1.067.83a11.23,11.23,0,0,0,1.058,4.89,8.317,8.317,0,0,0,2.944,3.469,7.668,7.668,0,0,0,4.319,1.244,7.413,7.413,0,0,0,5.958-2.747,10.642,10.642,0,0,0,2.3-7.075v-.613a11.142,11.142,0,0,0-1.067-4.861,8.47,8.47,0,0,0-2.955-3.488,7.549,7.549,0,0,0-4.278-1.254,7.4,7.4,0,0,0-5.969,2.786,10.617,10.617,0,0,0-2.312,7.015Z" transform="translate(-576.551 0)" fill="#fff"/>
  </g>
</svg>
