<svg xmlns="http://www.w3.org/2000/svg" viewBox="0 0 93.97 94.14"><defs><style>.cls-1{fill:#222459;}</style></defs><g id="Layer_2" data-name="Layer 2"><g id="Layer_1-2" data-name="Layer 1"><path class="cls-1" d="M48.25,58.21H23.58a2,2,0,1,0,0,4H48.25a2,2,0,0,0,0-4Z"/><path class="cls-1" d="M48.25,64.21H23.58a2,2,0,0,0,0,4H48.25a2,2,0,0,0,0-4Z"/><path class="cls-1" d="M38.73,70.22H23.58a2,2,0,0,0,0,4H38.73a2,2,0,0,0,0-4Z"/><path class="cls-1" d="M94,24.19H79.52V0H14.62V24.19H0V76.57H13.4V94.14H81.09V76.57H94ZM18.62,4h56.9V24.19H18.62ZM77.09,90.14H17.4V52.38H77.09ZM90,72.57H81.09V48.38H13.4V72.57H4V28.19H90Z"/></g></g></svg>