<svg xmlns="http://www.w3.org/2000/svg" width="19.657" height="23.79" viewBox="0 0 19.657 23.79">
  <g id="Layer_2" data-name="Layer 2" transform="translate(-1947.032 -2022.589)">
    <g id="Layer_1-2" data-name="Layer 1-2" transform="translate(1947.032 2022.589)">
      <path id="Path_397" data-name="Path 397" d="M1965.8,2044.608h-1.83V2039.5a.942.942,0,0,0-.325-.708l-5.667-4.457,5.667-4.457a.886.886,0,0,0,.325-.708v-4.811h1.83a.885.885,0,0,0,0-1.771h-17.886a.885.885,0,0,0,0,1.771h1.83v4.811a.941.941,0,0,0,.325.708l5.637,4.457-5.637,4.457a.885.885,0,0,0-.325.708v5.106h-1.83a.885.885,0,1,0,0,1.771H1965.8a.885.885,0,1,0,0-1.771Zm-14.286-20.248H1962.2v4.368l-5.342,4.25-5.342-4.25Zm0,15.584,5.342-4.25,5.342,4.221v4.663h-10.685Z" transform="translate(-1947.032 -2022.589)" fill="#fff"/>
    </g>
  </g>
</svg>
