<svg xmlns="http://www.w3.org/2000/svg" viewBox="0 0 139.04 168.27"><defs><style>.cls-1{fill:#222459;}</style></defs><g id="Layer_2" data-name="Layer 2"><g id="Layer_1-2" data-name="Layer 1"><g id="Path_397" data-name="Path 397"><path class="cls-1" d="M132.78,155.76h-13V119.63a6.61,6.61,0,0,0-2.3-5L77.45,83.09l40.08-31.52a6.28,6.28,0,0,0,2.3-5v-34h13a6.27,6.27,0,0,0,0-12.53H6.26a6.27,6.27,0,0,0,0,12.53h13v34a6.62,6.62,0,0,0,2.3,5L61.38,83.09,21.51,114.62a6.25,6.25,0,0,0-2.3,5v36.11H6.26a6.27,6.27,0,0,0,0,12.53H132.78a6.27,6.27,0,0,0,0-12.53h0ZM31.73,12.53h75.58v30.9L69.53,73.49,31.74,43.43Zm0,110.24L69.51,92.7l37.79,29.86v33H31.72Z"/></g></g></g></svg>